<svg width="21" height="21" viewBox="0 0 21 21" fill="none" xmlns="http://www.w3.org/2000/svg"><path d="M11.576 18.541a19.716 19.716 0 01-6.48-5.042l-.001-.002C3.598 11.72 2.606 10.04 1.928 8.242l-.002-.006-.002-.006c-.266-.773-.6-1.893-.528-3.059v-.01l.001-.01c.152-1.459 1.36-2.354 2.332-3.32l.006-.006c.396-.368.901-.607 1.42-.607.552 0 1.012.248 1.398.606.793.723 1.516 1.536 2.27 2.3.414.414.663.898.663 1.447 0 .534-.551 1.43-.927 1.828l-.005.006c-.434.431-.863.866-1.31 1.283.215.516.552 1.033 1.098 1.723 1.153 1.395 2.483 2.592 4.105 3.399l1.288-1.281c.397-.396 1.157-1.033 1.705-1.033.573 0 1.039.248 1.433.64l2.275 2.265c.406.404.633.902.633 1.429 0 .523-.224 1.022-.62 1.433-.939 1.035-1.947 2.242-3.439 2.323-1.453.077-2.85-.417-4.146-1.044z" stroke="#000" stroke-miterlimit="10" stroke-linecap="round"/></svg>