<svg width="223" height="31" viewBox="0 0 223 31" fill="none" xmlns="http://www.w3.org/2000/svg"><path fill-rule="evenodd" clip-rule="evenodd" d="M2.952 24.95v1.827c0 1.972-1.008 2.994-2.952 3.14v.658h14.614c8.639 0 15.262-5.405 15.262-14.755C29.876 8.442 25.412.7 13.462.7H0v.584h.288c2.376.365 2.664 1.826 2.664 3.506v20.16zM8.639 4.57V2.38h3.815c6.911 0 10.87 5.332 10.87 12.636 0 12.564-7.702 13.806-11.518 13.806-2.303 0-3.167-1.023-3.167-2.338V4.571zm54.893 26.008h16.337l1.016-6.36h-.653a11.45 11.45 0 01-.799 2.047 4.528 4.528 0 01-1.623 2.102 4.482 4.482 0 01-2.515.822H71.01c-2.106 0-2.977-.073-3.05-2.997V10.697c0-1.68 0-3.142 2.469-3.508h.29v-.658H60.482v.658h.29c2.47.365 2.47 1.827 2.47 3.508v16.08c0 1.973-.8 2.997-2.76 3.143v.658h3.05zM33.52 18.224c0 6.389 4.505 12.352 12.352 12.352 7.846 0 12.424-6.673 12.424-12.352 0-5.68-3.924-12.423-12.424-12.423S33.52 11.764 33.52 18.224zm5.304 0c0-6.034 2.107-11.074 7.048-11.074 4.94 0 7.12 5.04 7.12 11.074s-2.107 10.861-7.12 10.861-7.048-4.97-7.048-10.861zm66.402-11.632h-.721c-.073.922-.361 1.206-.939.993a13.677 13.677 0 00-7.289-1.774c-9.526 0-13.207 5.96-13.207 11.85 0 9.722 6.929 12.915 12.774 12.915 5.846 0 9.021-3.548 9.815-4.825l-.505-.497c-.361.568-2.814 3.974-9.093 3.974-3.392-.071-7.578-2.91-7.578-11.354 0-7.096 3.753-10.786 8.083-10.786a8.034 8.034 0 014.272 1.31 7.84 7.84 0 012.873 3.374c.362.678.652 1.391.866 2.128h.649V6.592zm12.253 23.913h9.837l.934-6.36h-.575c-.215.44-.431 1.243-.862 2.047a4.442 4.442 0 01-1.596 2.115 4.326 4.326 0 01-2.496.809h-3.734c-2.083 0-2.944-.073-3.016-2.997v-7.601h3.375c2.01 0 2.944.22 3.159 3.508h.575v-8.478h-.575c-.215 3.289-1.149 3.508-3.159 3.508h-3.375v-9.21h5.744c2.154 0 3.375 1.536 4.093 2.924.718 1.39.718 1.243.862 1.681h.646l-1.436-5.92h-17.305v.658h.287c2.442.365 2.442 1.827 2.442 3.508v16.08c0 1.973-.79 2.997-2.729 3.143v.658l8.904-.073zm50.682-5.555v1.827c0 2.046-.795 2.997-2.749 3.143v.658h10.202v-.658c-1.954-.146-2.75-1.097-2.75-3.143v-16.08c0-1.68 0-3.142 2.46-3.508h.29v-.658h-10.202v.658h.29c2.459.365 2.459 1.827 2.459 3.508V24.95zm18.95-.017v1.832c0 2.053-.794 3.006-2.743 3.153v.66h10.107v-.66c-1.877-.147-2.671-1.1-2.671-3.153V7.925h3.537c2.238 0 3.538 1.612 4.26 2.932l.866 1.466h.65l-1.805-5.792h-19.781l-1.732 5.792h.577l.867-1.466c.794-1.32 2.093-2.933 4.259-2.933h3.609v17.009zm27.293-.058l.726 1.828c.799 2.046.363 3.069-1.38 3.215v.658h9.226v-.658c-1.961-.146-2.543-1.17-3.342-3.215l-.726-1.828-4.94-12.716-.581-1.462-1.817-4.896h-.436l-8.427 20.974c-.072.293-.218.585-.29.805a4.82 4.82 0 01-1.476 1.572 4.778 4.778 0 01-2.011.766v.658h7.337v-.658c-1.235-.073-2.761-.365-2.325-2.046l.364-1.096 2.179-5.482h6.538l1.381 3.581zm-7.338-5.042l2.761-6.724 2.615 6.724h-5.376zM145.782 8.004l-.873-2.338c-1.017-2.556-.509-3.871 1.745-4.09V.699h-11.849v.877c2.471.219 3.271 1.534 4.216 4.09l.945 2.338 6.324 16.362.727 1.826 1.672 4.383h1.963l9.959-24.982.436-1.022a6.207 6.207 0 011.847-1.99 6.16 6.16 0 012.515-1.005V.699h-9.232v.877c1.599.073 3.489.511 2.98 2.556-.145.439-.29.95-.508 1.461l-6.979 17.531-5.888-15.12z" fill="#171719"/></svg>