<svg width="89" height="34" viewBox="0 0 89 34" fill="none" xmlns="http://www.w3.org/2000/svg"><path d="M87.774 26c-.486 0-1.216.413-1.46.496-.567.082-1.296-.166-1.701-3.389-.244-1.9 0-3.884.08-5.867 0-.496-5.025.248-5.025 1.818-.081 2.396-.406 4.876.162 7.19 0 .082 0 .082.08.165-2.431.661-4.863-.661-5.755-3.306-.243-.744-.324-1.57-.324-2.396 0-.248.081-1.819.243-2.314a32.933 32.933 0 009.647-3.471c.324-.166 1.135-.579 1.054-1.075-.892-7.025-7.782-5.702-12.565-3.47-1.216.578-1.54.908-1.46 1.735.082.744.892.909 1.54.744.811-.248 1.217-1.158 2.19-1.57 3.161-1.488 4.62.99 5.188 3.8-1.946.827-7.377 1.819-9.242 2.15-.81.165-.972.743-1.135 1.24-.243 1.156-.405 2.313-.405 3.47-.08 1.405-.243 4.132-1.459 4.298-1.216.248-.973-5.207-.973-6.364.081-2.644.325-5.124-.243-7.768-.892-4.133-5.512-3.554-8.836-2.066-1.783-2.067-5.269-1.736-8.43-.827-.811.248-2.838.744-3 1.818-.648 6.364-1.135 13.223-.08 19.587-3.892-1.488-7.215-5.703-8.107-9.917 3.404-.496 6.404-1.819 5.998-6.033-.73-7.273-8.268-7.934-15.077-4.876-.73.33-.973.826-1.216 1.9-.973 3.637-1.622 10.496-.649 16.199.081.413 1.135.991 2.756.991 1.622 0 2.757-.413 2.675-.991-1.702-6.777-.73-14.463.163-17.356 7.052-.66 6.566 6.86 6.485 7.934-.163 1.075-1.54 1.24-1.946.083-.405-1.075-4.54-.248-4.458 1.983.243 8.017 7.863 13.802 15.402 12.645.567-.083 3.81-.91 3.648-1.901-1.784-6.446-1.622-13.388-.973-20 5.107-2.314 2.756 12.893 2.675 16.777 0 .248.73.661 2.594.661 1.702 0 2.432-.165 2.432-.909.08-3.306.162-7.273.162-10.909 0-1.074.081-3.967-.568-5.207 4.054-1.983 3.648 5.703 3.567 7.19 0 2.645-.73 6.942 1.378 9.091 1.622 1.653 5.35.744 7.377-1.157.405.496.973.992 1.621 1.322 2.432 1.405 5.837.744 8.755-.413 1.216.992 3.243.91 4.864.496.81-.165 2.27-.661 2.756-1.57.243-.33.081-.661-.405-.661zm-63.23-1.157c-.081-.743-1.135-.743-1.703-.66-1.134.165-1.54 1.487-2.999 2.148-.891.413-2.026.496-2.756.248-2.189-.744-2.675-2.562-3-4.546-.405-2.892-.242-6.694.73-9.504.243-.743-3.81-1.735-4.783.662-1.702 4.38-2.35 11.322 1.46 14.628 3.08 2.644 7.863 1.074 11.267-1.075.649-.413 1.865-1.322 1.784-1.9zM4.925 8.148c1.946-.578 2.189-.909 2.189-1.487 0-1.405.162-2.81.891-3.884.973-.083 2.351.248 3.486.495 1.297.248 2.189-.082 3-.495.08 0 2.107-1.323 1.297-1.488C9.95-.529 2.33.876 2.33 8.066c0 .578.73.66 2.594.082z" fill="#fff"/><path d="M7.196 10.794c4.702-1.074 10.376-1.818 12.321 3.14.406.993.568 2.067.568 3.141 0 .91-.243 1.653-1.621 1.405-.568-.082-2.027-.826-2.837-.33-.811.495-.649 2.479.162 2.396 2.756-.165 8.917-.991 9.322-4.71.243-2.397-.162-4.546-2.432-6.364-4.053-3.306-15.078-.909-21.563 1.157-.73.248-1.054 1.074-.648 1.488.486.413 1.702-.083 1.62 0-.567 4.05-.567 12.644-.161 16.859 0 .33.567.496 2.188.496 1.622 0 2.838-.413 2.757-1.075-.163-5.289-.649-12.148.324-17.603z" fill="#fff"/></svg>