<svg width="40" height="41" viewBox="0 0 40 41" fill="none" xmlns="http://www.w3.org/2000/svg"><path d="M32.61 39.514H7.483c-1.805 0-3.272-1.499-3.272-3.344V17.671h31.662v18.5c.009 1.852-1.458 3.343-3.263 3.343z" stroke="#fff" stroke-width="1.5" stroke-miterlimit="10"/><path d="M35.693 17.672H4.4c-1.854 0-3.354-1.534-3.354-3.429 0-1.895 1.5-3.428 3.354-3.428h31.292c1.854 0 3.354 1.533 3.354 3.428s-1.5 3.429-3.354 3.429zM15.494 1.515c2.514 0 4.55 2.08 4.55 4.65v4.65h-4.55c-2.513 0-4.549-2.081-4.549-4.65 0-2.57 2.036-4.65 4.55-4.65z" stroke="#fff" stroke-width="1.5" stroke-miterlimit="10"/><path d="M24.592 1.515c-2.514 0-4.549 2.08-4.549 4.65v4.65h4.55c2.513 0 4.548-2.081 4.548-4.65 0-2.57-2.035-4.65-4.549-4.65z" stroke="#fff" stroke-width="1.5" stroke-miterlimit="10"/></svg>