<svg width="33" height="33" viewBox="0 0 33 33" fill="none" xmlns="http://www.w3.org/2000/svg"><path d="M16.439 3.335c4.273 0 4.775.02 6.463.096 1.562.07 2.407.33 2.972.552.75.292 1.282.635 1.841 1.194a4.888 4.888 0 011.194 1.842c.216.565.482 1.41.552 2.972.076 1.689.095 2.19.095 6.464 0 4.274-.019 4.776-.095 6.465-.07 1.562-.33 2.407-.552 2.972-.292.75-.635 1.283-1.194 1.842a4.887 4.887 0 01-1.841 1.194c-.565.216-1.41.482-2.971.552-1.69.076-2.191.095-6.464.095-4.273 0-4.775-.019-6.464-.095-1.561-.07-2.406-.33-2.971-.552-.75-.293-1.282-.635-1.841-1.194a4.888 4.888 0 01-1.194-1.842c-.216-.565-.482-1.41-.552-2.972-.076-1.69-.095-2.19-.095-6.465 0-4.273.019-4.775.095-6.464.07-1.563.33-2.407.552-2.972.292-.75.635-1.283 1.194-1.842a4.886 4.886 0 011.841-1.194c.565-.216 1.41-.483 2.971-.552 1.69-.083 2.197-.096 6.464-.096zm0-2.883c-4.343 0-4.889.02-6.597.095-1.701.077-2.863.35-3.88.743a7.796 7.796 0 00-2.831 1.848 7.935 7.935 0 00-1.848 2.833C.89 6.987.617 8.149.541 9.857.464 11.56.445 12.105.445 16.45c0 4.344.02 4.89.096 6.598.076 1.702.349 2.864.742 3.887a7.798 7.798 0 001.848 2.832 7.933 7.933 0 002.832 1.848c1.016.394 2.178.667 3.885.743 1.708.076 2.248.095 6.597.095 4.35 0 4.89-.019 6.597-.095 1.702-.076 2.864-.35 3.886-.743a7.795 7.795 0 002.832-1.848 7.936 7.936 0 001.847-2.832c.394-1.017.667-2.179.743-3.887.076-1.708.095-2.248.095-6.598s-.019-4.89-.095-6.598c-.076-1.702-.35-2.864-.743-3.887a7.797 7.797 0 00-1.847-2.832 7.933 7.933 0 00-2.832-1.848C25.912.89 24.75.617 23.042.541c-1.714-.07-2.26-.089-6.603-.089z" fill="#fff"/><path d="M16.439 8.238a8.218 8.218 0 00-8.216 8.218 8.214 8.214 0 008.216 8.217 8.214 8.214 0 008.215-8.217 8.214 8.214 0 00-8.215-8.218zm0 13.546a5.333 5.333 0 01-5.334-5.335 5.333 5.333 0 1110.667 0 5.333 5.333 0 01-5.333 5.335zm8.54-11.959a1.918 1.918 0 100-3.835 1.918 1.918 0 000 3.835z" fill="#fff"/></svg>