<svg width="18" height="18" viewBox="0 0 18 18" fill="none" xmlns="http://www.w3.org/2000/svg"><path d="M10.356 16.069a17.147 17.147 0 01-5.637-4.386v-.001C3.416 10.135 2.553 8.674 1.963 7.11l-.002-.006L1.96 7.1c-.231-.672-.522-1.646-.46-2.66l.001-.009.001-.009c.132-1.269 1.184-2.047 2.028-2.888l.006-.005C3.88 1.208 4.32 1 4.77 1c.48 0 .88.216 1.216.527.69.63 1.318 1.336 1.973 2.001.36.36.578.781.578 1.258 0 .465-.243.903-.57 1.25l-.004.005c-.377.375-.75.753-1.14 1.115.188.45.48.9.955 1.5 1.004 1.212 2.16 2.254 3.571 2.956l1.12-1.115c.346-.344.77-.557 1.246-.557.499 0 .904.216 1.247.557l1.979 1.97c.353.351.55.784.55 1.242 0 .456-.195.89-.54 1.247-.816.9-1.692 1.95-2.99 2.02-1.264.067-2.48-.362-3.606-.907z" stroke="#fff" stroke-miterlimit="10" stroke-linecap="round"/></svg>