<svg width="30" height="31" viewBox="0 0 30 31" fill="none" xmlns="http://www.w3.org/2000/svg"><path d="M20.159 11.564c0-2.662-2.486-3.872-4.972-3.872-3.124 0-5.368 1.87-5.39 4.73h2.002c.088-1.342.88-3.058 3.344-3.058 1.694 0 2.926.902 2.926 2.288 0 1.43-.902 2.31-2.046 3.036-1.826 1.166-2.728 1.98-2.728 3.828v.748h2.046v-.682c0-1.21.484-1.606 1.848-2.486 1.496-.968 2.97-2.442 2.97-4.532zm-7.062 12.364h2.53v-2.53h-2.53v2.53z" fill="#B0B9C4"/><circle cx="14.977" cy="15.81" r="13.878" stroke="#B0B9C4" stroke-width="2"/></svg>