<svg width="41" height="41" viewBox="0 0 41 41" fill="none" xmlns="http://www.w3.org/2000/svg"><path d="M20.168 1.103c10.845 0 19.636 8.791 19.636 19.636 0 10.845-8.792 19.637-19.636 19.637C9.323 40.376.53 31.584.53 20.739S9.323 1.103 20.168 1.103z" stroke="#171719"/><path d="M5.453 16.728c.134.235.269.503.37.84 1.006 2.751 1.476 7.987 3.12 7.987 2.25 0 2.25-9.633 4.532-9.633 2.248 0 2.248 9.633 4.53 9.633 2.25 0 2.25-9.633 4.532-9.633 2.249 0 2.249 9.633 4.531 9.633 2.249 0 2.249-9.633 4.531-9.633 1.745 0 2.148 5.807 3.29 8.391" stroke="#171719" stroke-miterlimit="10"/></svg>