<svg width="33" height="32" viewBox="0 0 33 32" fill="none" xmlns="http://www.w3.org/2000/svg"><path fill-rule="evenodd" clip-rule="evenodd" d="M32.664 16c0 8.837-7.163 16-16 16-8.836 0-16-7.163-16-16s7.164-16 16-16c8.837 0 16 7.163 16 16zm-14.567-4.578c-2.774 1.156-10.774 4.44-10.774 4.44-1.896.74-.786 1.433-.786 1.433a96 96 0 003.005.97c1.388.417 2.128-.045 2.128-.045s3.237-2.128 6.52-4.393c2.312-1.573 1.757-.278 1.202.277a176.83 176.83 0 01-4.855 4.624c-.74.648-.37 1.203-.047 1.48.942.797 3.16 2.245 4.166 2.903.279.182.465.304.505.334.231.185 1.526 1.017 2.312.832.786-.185.879-1.248.879-1.248s.6-3.792 1.156-7.26c.103-.681.205-1.348.301-1.97.25-1.615.451-2.927.485-3.394.139-1.573-1.526-.925-1.526-.925s-3.607 1.48-4.67 1.942z" fill="#171719"/></svg>