<svg width="33" height="32" viewBox="0 0 33 32" fill="none" xmlns="http://www.w3.org/2000/svg"><path fill-rule="evenodd" clip-rule="evenodd" d="M11.772 8.127c-.316-.743-.557-.771-1.036-.79a9.444 9.444 0 00-.547-.018c-.624 0-1.277.178-1.67.573-.48.48-1.67 1.6-1.67 3.894 0 2.296 1.708 4.515 1.938 4.826.24.31 3.33 5.089 8.129 7.036 3.752 1.524 4.866 1.383 5.72 1.204 1.247-.263 2.811-1.167 3.205-2.258.393-1.09.393-2.022.278-2.22-.115-.197-.432-.31-.912-.545-.48-.235-2.811-1.364-3.253-1.515-.432-.16-.844-.103-1.17.349-.461.63-.912 1.27-1.277 1.655-.288.301-.758.339-1.151.179-.528-.216-2.006-.724-3.83-2.314-1.41-1.232-2.37-2.765-2.648-3.226-.278-.47-.029-.743.192-.997.24-.292.47-.499.71-.772.24-.272.374-.413.528-.733.163-.31.048-.63-.067-.866-.116-.236-1.075-2.53-1.469-3.462zM16.331 0C7.329 0 .007 7.177.007 16c0 3.499 1.152 6.744 3.11 9.378L1.08 31.323l6.277-1.966A16.438 16.438 0 0016.34 32c9.002 0 16.324-7.177 16.324-16S25.342 0 16.34 0h-.01z" fill="#171719"/></svg>