<svg width="21" height="18" viewBox="0 0 21 18" fill="none" xmlns="http://www.w3.org/2000/svg"><path d="M2.058 7.59s8.595-3.527 11.576-4.769c1.143-.497 5.018-2.086 5.018-2.086s1.788-.696 1.64.993c-.05.696-.448 3.13-.845 5.763-.596 3.726-1.242 7.8-1.242 7.8s-.1 1.143-.944 1.342c-.845.198-2.236-.696-2.484-.894-.2-.15-3.346-2.07-4.638-3.163-.348-.299-.745-.895.05-1.59a189.719 189.719 0 005.216-4.968c.597-.597 1.193-1.988-1.291-.298-3.528 2.434-7.005 4.72-7.005 4.72s-.795.496-2.286.049c-1.49-.447-3.61-1.358-3.61-1.358s-1.192-.745.845-1.54z" stroke="#171719"/></svg>