<svg width="23" height="22" viewBox="0 0 23 22" fill="none" xmlns="http://www.w3.org/2000/svg"><path d="M5.49 19.619l-3.212 1.006 1.027-3.002.085-.248-.157-.212a9.873 9.873 0 01-1.96-5.91c0-5.551 4.608-10.085 10.294-10.092h.019c5.693 0 10.307 4.537 10.307 10.093 0 5.555-4.614 10.092-10.307 10.092-2.1 0-4.044-.613-5.674-1.67l-.197-.128-.225.07z" stroke="#000"/><path d="M9.693 9.763l.375.33.027-.03c.106-.12.21-.238.312-.448.198-.386.032-.75-.032-.88l-.01-.02-.022-.051a111.319 111.319 0 01-.494-1.167l-.206-.489h0v-.001c-.09-.21-.209-.426-.421-.562a.994.994 0 00-.527-.14l-.013-.001m1.01 3.459l.376.33c-.06.068-.12.13-.17.183l-.024.025c-.058.06-.107.111-.155.17l-.006.007c.176.283.603.92 1.192 1.434.782.682 1.417.933 1.721 1.054l.076.03-.19.463m-2.82-3.696a5.049 5.049 0 01-.154.165 3.58 3.58 0 00-.205.225m.36-.39l.024-.028c.106-.12.17-.193.242-.343l-.626.76m3.18 3.307l.188-.463a.144.144 0 00.048.01c.13-.142.29-.362.482-.625l.105-.144a.99.99 0 01.556-.394c.225-.057.436-.022.609.041.15.053.529.229.86.386.356.168.714.342.837.402h0l.11.053c.072.034.151.071.205.1.087.047.253.14.358.32m-4.359.314l-.074-.03c-.316-.125-1.015-.402-1.862-1.14-.714-.623-1.199-1.399-1.34-1.632-.138-.234-.018-.371.092-.498l.005-.006m3.18 3.306c.198.08.436.062.582-.09.157-.167.347-.428.544-.699l.101-.139c.165-.228.374-.257.592-.176.224.076 1.403.647 1.646.766l.138.066c.166.078.276.13.323.21m.432-.252l-.432.252m.432-.252s0 0 0 0l-.432.252m.432-.252c.076.131.091.28.097.354.008.1.006.213-.005.334a3.47 3.47 0 01-.195.856h0c-.151.421-.5.748-.842.975a3.427 3.427 0 01-1.146.487h0a2.74 2.74 0 01-1.077.023c-.486-.076-1.142-.266-2.107-.658m4.843-2.12l-7.106-3.243m2.263 5.363s0 0 0 0l.188-.463-.188.463zm0 0c-1.305-.53-2.36-1.435-3.094-2.209a12.608 12.608 0 01-1.187-1.455l-.011-.015a3.463 3.463 0 00-.025-.035l-.001-.002-.006-.008h0l-.013-.017a6.455 6.455 0 01-.564-.895c-.247-.477-.502-1.131-.502-1.827 0-1.335.692-2.024.97-2.302l.02-.02.354.353-.354-.353c.33-.33.814-.437 1.199-.437.115 0 .217.005.3.01m0 0h-.004l-.02.5.029-.5h-.005z" stroke="#000"/></svg>