<svg width="21" height="21" viewBox="0 0 21 21" fill="none" xmlns="http://www.w3.org/2000/svg">
<path d="M11.5763 18.5415C9.0859 17.3357 6.91052 15.6389 5.09612 13.4988L5.09499 13.4975C3.59849 11.7192 2.60615 10.0398 1.92848 8.24134L1.92608 8.23499L1.92387 8.22857C1.65782 7.45629 1.32389 6.33615 1.39561 5.17036L1.39622 5.16038L1.39726 5.15044C1.54894 3.69113 2.75776 2.79624 3.72896 1.82969L3.73499 1.82408C4.13081 1.45643 4.6365 1.2168 5.15589 1.2168C5.70655 1.2168 6.16732 1.46458 6.55328 1.82258C7.34639 2.54637 8.0686 3.35896 8.82226 4.12374C9.2368 4.53695 9.48597 5.02147 9.48597 5.56969C9.48597 6.10431 8.93489 6.9992 8.55894 7.39829L8.55366 7.4039C8.12045 7.83503 7.6908 8.27026 7.24351 8.6869C7.45946 9.20282 7.79628 9.72032 8.34193 10.4099C9.49538 11.8047 10.8253 13.0019 12.4474 13.809L13.7349 12.5276C14.1321 12.1323 14.8924 11.4952 15.44 11.4952C16.0131 11.4952 16.4787 11.7435 16.8728 12.1357L19.1484 14.4004C19.5539 14.804 19.781 15.3022 19.781 15.829C19.781 16.3521 19.5572 16.8508 19.1601 17.262C18.2221 18.2965 17.2144 19.5038 15.7221 19.5854C14.2687 19.6616 12.8711 19.1684 11.5763 18.5415Z" stroke="black" stroke-miterlimit="10" stroke-linecap="round"/>
</svg>
