<svg width="223" height="31" viewBox="0 0 223 31" fill="none" xmlns="http://www.w3.org/2000/svg">
<path fill-rule="evenodd" clip-rule="evenodd" d="M2.95159 24.9505V26.7766C2.95159 28.7489 1.94373 29.7715 0 29.9176V30.575H14.6139C23.2527 30.575 29.8758 25.1696 29.8758 15.8197C29.8758 8.4421 25.4124 0.699219 13.4621 0.699219H0V1.28359H0.28796C2.66363 1.64882 2.95159 3.10974 2.95159 4.7898V24.9505ZM8.63879 4.57066V2.37928H12.4543C19.3653 2.37928 23.3247 7.71164 23.3247 15.0162C23.3247 27.5801 15.6218 28.8219 11.8063 28.8219C9.50267 28.8219 8.63879 27.7993 8.63879 26.4844V4.57066Z" fill="#171719"/>
<path fill-rule="evenodd" clip-rule="evenodd" d="M63.532 30.5776H79.8689L80.8854 24.2189H80.2319C80.0318 24.9253 79.7643 25.6107 79.4332 26.2654C79.1135 27.1138 78.548 27.846 77.8102 28.3673C77.0723 28.8885 76.1959 29.1748 75.2946 29.1889H71.0107C68.905 29.1889 68.0337 29.1158 67.9611 26.1923V10.6973C67.9611 9.01629 67.9611 7.5545 70.4298 7.18905H70.7202V6.53125H60.4824V7.18905H60.7729C63.2415 7.5545 63.2415 9.01629 63.2415 10.6973V26.777C63.2415 28.7504 62.4429 29.7737 60.4824 29.9198V30.5776H63.532Z" fill="#171719"/>
<path fill-rule="evenodd" clip-rule="evenodd" d="M33.5205 18.2238C33.5205 24.6128 38.0251 30.5758 45.8717 30.5758C53.7184 30.5758 58.2956 23.9029 58.2956 18.2238C58.2956 12.5447 54.3722 5.80078 45.8717 5.80078C37.3712 5.80078 33.5205 11.7638 33.5205 18.2238ZM38.8243 18.2238C38.8243 12.1898 40.9312 7.14957 45.8717 7.14957C50.8122 7.14957 52.9918 12.1898 52.9918 18.2238C52.9918 24.2578 50.8848 29.0851 45.8717 29.0851C40.8586 29.0851 38.8243 24.1159 38.8243 18.2238Z" fill="#171719"/>
<path fill-rule="evenodd" clip-rule="evenodd" d="M105.226 6.59157H104.505C104.432 7.51404 104.144 7.79788 103.566 7.585C101.356 6.32758 98.8288 5.71244 96.2773 5.81102C86.751 5.81102 83.0703 11.7716 83.0703 17.6612C83.0703 27.3827 89.9986 30.5758 95.8443 30.5758C101.69 30.5758 104.865 27.0279 105.659 25.7506L105.154 25.2539C104.793 25.8216 102.34 29.2276 96.0608 29.2276C92.6688 29.1567 88.483 26.3183 88.483 17.8741C88.483 10.7782 92.2358 7.08829 96.566 7.08829C98.0883 7.1131 99.5712 7.56779 100.838 8.39815C102.105 9.22851 103.102 10.3995 103.711 11.7716C104.073 12.45 104.363 13.1634 104.577 13.9004H105.226V6.59157Z" fill="#171719"/>
<path fill-rule="evenodd" clip-rule="evenodd" d="M117.479 30.5045H127.316L128.25 24.1458H127.675C127.46 24.5843 127.244 25.3883 126.813 26.1923C126.506 27.0464 125.949 27.7843 125.217 28.3069C124.486 28.8295 123.614 29.1118 122.721 29.1158H118.987C116.904 29.1158 116.043 29.0428 115.971 26.1192V18.5179H119.346C121.356 18.5179 122.29 18.7372 122.505 22.0262H123.08V13.5478H122.505C122.29 16.8368 121.356 17.0561 119.346 17.0561H115.971V7.84685H121.715C123.869 7.84685 125.09 9.38173 125.808 10.7704C126.526 12.1591 126.526 12.0129 126.67 12.4515H127.316L125.88 6.53125H108.575V7.18905H108.862C111.304 7.5545 111.304 9.01629 111.304 10.6973V26.777C111.304 28.7504 110.514 29.7737 108.575 29.9198V30.5776L117.479 30.5045Z" fill="#171719"/>
<path fill-rule="evenodd" clip-rule="evenodd" d="M168.161 24.9498V26.777C168.161 28.8235 167.366 29.7737 165.412 29.9198V30.5776H175.614V29.9198C173.66 29.7737 172.864 28.8235 172.864 26.777V10.6973C172.864 9.01629 172.864 7.5545 175.324 7.18905H175.614V6.53125H165.412V7.18905H165.702C168.161 7.5545 168.161 9.01629 168.161 10.6973V24.9498Z" fill="#171719"/>
<path fill-rule="evenodd" clip-rule="evenodd" d="M187.111 24.9326V26.7654C187.111 28.8181 186.317 29.7712 184.368 29.9178V30.5776H194.475V29.9178C192.598 29.7712 191.804 28.8181 191.804 26.7654V7.92418H195.341C197.579 7.92418 198.879 9.53704 199.601 10.8567L200.467 12.3229H201.117L199.312 6.53125H179.531L177.799 12.3229H178.376L179.243 10.8567C180.037 9.53704 181.336 7.92418 183.502 7.92418H187.111V24.9326Z" fill="#171719"/>
<path fill-rule="evenodd" clip-rule="evenodd" d="M214.404 24.8754L215.13 26.7025C215.929 28.7488 215.493 29.7719 213.75 29.9181V30.5758H222.976V29.9181C221.015 29.7719 220.433 28.7488 219.634 26.7025L218.908 24.8754L213.968 12.159L213.387 10.6973L211.57 5.80078H211.134L202.707 26.7755C202.635 27.0679 202.489 27.3602 202.417 27.5795C202.049 28.2094 201.545 28.7472 200.941 29.1523C200.337 29.5575 199.649 29.8193 198.93 29.9181V30.5758H206.267V29.9181C205.032 29.845 203.506 29.5527 203.942 27.8718L204.306 26.7755L206.485 21.2943H213.023L214.404 24.8754ZM207.066 19.8327L209.827 13.1091L212.442 19.8327H207.066Z" fill="#171719"/>
<path fill-rule="evenodd" clip-rule="evenodd" d="M145.782 8.00382L144.909 5.66635C143.892 3.10974 144.4 1.79491 146.654 1.57577V0.699219H134.805V1.57577C137.276 1.79491 138.076 3.10974 139.021 5.66635L139.966 8.00382L146.29 24.3661L147.017 26.1923L148.689 30.575H150.652L160.611 5.5933L161.047 4.57066C161.509 3.77854 162.14 3.09909 162.894 2.58123C163.648 2.06336 164.507 1.71998 165.409 1.57577V0.699219H156.177V1.57577C157.776 1.64882 159.666 2.0871 159.157 4.13238C159.012 4.57066 158.867 5.08198 158.649 5.5933L151.67 23.1243L145.782 8.00382Z" fill="#171719"/>
</svg>
