<svg width="89" height="34" viewBox="0 0 89 34" fill="none" xmlns="http://www.w3.org/2000/svg">
<path d="M87.774 25.9998C87.2876 25.9998 86.558 26.413 86.3148 26.4957C85.7474 26.5783 85.0178 26.3304 84.6125 23.1073C84.3693 21.2065 84.6125 19.223 84.6936 17.2396C84.6936 16.7437 79.6676 17.4875 79.6676 19.0577C79.5866 21.4544 79.2623 23.9337 79.8297 26.2477C79.8297 26.3304 79.8297 26.3304 79.9108 26.413C77.4789 27.0742 75.047 25.7519 74.1553 23.1073C73.9121 22.3635 73.831 21.537 73.831 20.7106C73.831 20.4627 73.9121 18.8924 74.0742 18.3966C77.4789 17.7354 80.7214 16.5784 83.7208 14.9255C84.0451 14.7603 84.8557 14.347 84.7746 13.8512C83.8829 6.82646 76.9925 8.14876 72.2098 10.3801C70.9938 10.9586 70.6696 11.2892 70.7506 12.1157C70.8317 12.8595 71.6423 13.0247 72.2908 12.8595C73.1015 12.6115 73.5068 11.7024 74.4796 11.2892C77.641 9.80164 79.1002 12.2809 79.6676 15.0908C77.7221 15.9173 72.2908 16.909 70.4264 17.2396C69.6157 17.4049 69.4536 17.9834 69.2915 18.4792C69.0483 19.6362 68.8862 20.7932 68.8862 21.9503C68.8051 23.3552 68.643 26.0824 67.427 26.2477C66.2111 26.4957 66.4543 21.0412 66.4543 19.8842C66.5353 17.2396 66.7785 14.7603 66.2111 12.1157C65.3194 7.98348 60.6988 8.56198 57.3752 10.0496C55.5918 7.98348 52.106 8.31405 48.9445 9.22313C48.1339 9.47106 46.1073 9.96692 45.9452 11.0413C45.2967 17.4049 44.8103 24.2643 45.8641 30.6279C41.9731 29.1403 38.6495 24.9254 37.7578 20.7106C41.1624 20.2147 44.1618 18.8924 43.7565 14.6776C43.0269 7.40497 35.488 6.74382 28.6787 9.80164C27.9491 10.1322 27.7059 10.6281 27.4627 11.7024C26.49 15.3388 25.8414 22.1982 26.8142 27.9006C26.8953 28.3138 27.9491 28.8923 29.5704 28.8923C31.1916 28.8923 32.3265 28.4791 32.2455 27.9006C30.5431 21.1238 31.5159 13.438 32.4076 10.5454C39.4601 9.88428 38.9737 17.4049 38.8927 18.4792C38.7305 19.5536 37.3525 19.7189 36.9471 18.5619C36.5418 17.4875 32.4076 18.3139 32.4887 20.5453C32.7318 28.5618 40.3518 34.3468 47.8907 33.1898C48.4582 33.1072 51.7007 32.2807 51.5386 31.289C49.7552 24.8428 49.9173 17.9007 50.5658 11.2892C55.6728 8.9752 53.322 24.1816 53.2409 28.0659C53.2409 28.3138 53.9705 28.727 55.8349 28.727C57.5373 28.727 58.2669 28.5618 58.2669 27.818C58.3479 24.5122 58.429 20.5453 58.429 16.909C58.429 15.8346 58.51 12.9421 57.8615 11.7024C61.9147 9.71899 61.5094 17.4049 61.4283 18.8924C61.4283 21.537 60.6988 25.8345 62.8064 27.9833C64.4277 29.6361 68.1566 28.727 70.1832 26.8262C70.5885 27.3221 71.1559 27.818 71.8045 28.1485C74.2364 29.5535 77.641 28.8923 80.5593 27.7353C81.7753 28.727 83.8019 28.6444 85.4231 28.2312C86.2338 28.0659 87.6929 27.57 88.1793 26.661C88.4225 26.3304 88.2604 25.9998 87.774 25.9998Z" fill="white"/>
<path d="M24.5438 24.8434C24.4628 24.0996 23.409 24.0996 22.8415 24.1823C21.7066 24.3475 21.3013 25.6698 19.8422 26.331C18.9505 26.7442 17.8156 26.8269 17.086 26.5789C14.8973 25.8351 14.4109 24.017 14.0866 22.0335C13.6813 19.141 13.8435 15.3394 14.8162 12.5295C15.0594 11.7857 11.0062 10.794 10.0335 13.1906C8.33114 17.5708 7.68263 24.5128 11.4926 27.8186C14.573 30.4632 19.3558 28.8929 22.7604 26.7442C23.409 26.331 24.6249 25.4219 24.5438 24.8434Z" fill="white"/>
<path d="M4.92509 8.14844C6.87061 7.56993 7.1138 7.23936 7.1138 6.66085C7.1138 5.25591 7.27593 3.85097 8.0055 2.7766C8.97826 2.69396 10.3563 3.02453 11.4912 3.27246C12.7882 3.52039 13.6799 3.18982 14.4906 2.7766C14.5716 2.7766 16.5982 1.4543 15.7876 1.28901C9.95103 -0.529148 2.33105 0.875795 2.33105 8.0658C2.33105 8.6443 3.06063 8.72695 4.92509 8.14844Z" fill="white"/>
<path d="M7.19586 10.7944C11.8975 9.71999 17.572 8.97619 19.5175 13.9348C19.9228 14.9265 20.085 16.0009 20.085 17.0753C20.085 17.9844 19.8418 18.7281 18.4637 18.4802C17.8962 18.3976 16.4371 17.6538 15.6265 18.1496C14.8158 18.6455 14.978 20.629 15.7886 20.5463C18.5447 20.381 24.7056 19.5546 25.1109 15.8356C25.3541 13.439 24.9488 11.2902 22.679 9.47206C18.6258 6.16631 7.60117 8.56297 1.11609 10.6291C0.386521 10.877 0.0622668 11.7034 0.467584 12.1167C0.953966 12.5299 2.16992 12.034 2.08885 12.1167C1.52141 16.1662 1.52141 24.7611 1.92673 28.976C1.92673 29.3065 2.49417 29.4718 4.11544 29.4718C5.73671 29.4718 6.95267 29.0586 6.8716 28.3975C6.70948 23.1083 6.22309 16.2488 7.19586 10.7944Z" fill="white"/>
</svg>
