<svg width="40" height="41" viewBox="0 0 40 41" fill="none" xmlns="http://www.w3.org/2000/svg">
<path d="M32.61 39.5144H7.48268C5.67786 39.5144 4.21094 38.015 4.21094 36.1702V17.6714H35.8735V36.1702C35.8817 38.0234 34.4148 39.5144 32.61 39.5144Z" stroke="white" stroke-width="1.5" stroke-miterlimit="10"/>
<path d="M35.6927 17.6716H4.40103C2.54677 17.6716 1.04688 16.1384 1.04688 14.2431C1.04688 12.3477 2.54677 10.8145 4.40103 10.8145H35.6927C37.547 10.8145 39.0469 12.3477 39.0469 14.2431C39.0469 16.1384 37.547 17.6716 35.6927 17.6716Z" stroke="white" stroke-width="1.5" stroke-miterlimit="10"/>
<path d="M15.4944 1.51465C18.008 1.51465 20.0436 3.59534 20.0436 6.16462V10.8146H15.4944C12.9809 10.8146 10.9453 8.73389 10.9453 6.16462C10.9453 3.59534 12.9809 1.51465 15.4944 1.51465Z" stroke="white" stroke-width="1.5" stroke-miterlimit="10"/>
<path d="M24.5921 1.51465C22.0785 1.51465 20.043 3.59534 20.043 6.16462V10.8146H24.5921C27.1056 10.8146 29.1412 8.73389 29.1412 6.16462C29.1412 3.59534 27.1056 1.51465 24.5921 1.51465Z" stroke="white" stroke-width="1.5" stroke-miterlimit="10"/>
</svg>
