<svg width="33" height="33" viewBox="0 0 33 33" fill="none" xmlns="http://www.w3.org/2000/svg">
<path d="M16.439 3.33526C20.712 3.33526 21.2136 3.35431 22.9025 3.43052C24.4644 3.50037 25.3088 3.76074 25.8739 3.98301C26.6231 4.27513 27.1564 4.61805 27.7152 5.1769C28.2739 5.73574 28.6231 6.26918 28.9088 7.01853C29.1247 7.58372 29.3913 8.42833 29.4612 9.99055C29.5374 11.6798 29.5564 12.1815 29.5564 16.4553C29.5564 20.7292 29.5374 21.2309 29.4612 22.9201C29.3913 24.4823 29.131 25.3269 28.9088 25.8921C28.6167 26.6415 28.2739 27.1749 27.7152 27.7338C27.1564 28.2926 26.6231 28.6419 25.8739 28.9276C25.3088 29.1436 24.4644 29.4103 22.9025 29.4801C21.2136 29.5563 20.712 29.5754 16.439 29.5754C12.1659 29.5754 11.6644 29.5563 9.97547 29.4801C8.41357 29.4103 7.56912 29.1499 7.00404 28.9276C6.25484 28.6355 5.7215 28.2926 5.16277 27.7338C4.60404 27.1749 4.25484 26.6415 3.96912 25.8921C3.75325 25.3269 3.48658 24.4823 3.41674 22.9201C3.34055 21.2309 3.3215 20.7292 3.3215 16.4553C3.3215 12.1815 3.34055 11.6798 3.41674 9.99055C3.48658 8.42833 3.7469 7.58372 3.96912 7.01853C4.26119 6.26918 4.60404 5.73574 5.16277 5.1769C5.7215 4.61805 6.25484 4.26878 7.00404 3.98301C7.56912 3.76709 8.41357 3.50037 9.97547 3.43052C11.6644 3.34796 12.1723 3.33526 16.439 3.33526ZM16.439 0.452148C12.0961 0.452148 11.5501 0.4712 9.84214 0.547405C8.14055 0.623611 6.97865 0.896681 5.96277 1.29041C4.9088 1.69684 4.01992 2.24933 3.13103 3.1384C2.24214 4.02746 1.69611 4.92288 1.28341 5.9707C0.889757 6.98678 0.616741 8.14891 0.540551 9.85719C0.46436 11.5591 0.445312 12.1053 0.445312 16.449C0.445312 20.7927 0.46436 21.3388 0.540551 23.0471C0.616741 24.749 0.889757 25.9112 1.28341 26.9336C1.68976 27.9878 2.24214 28.8768 3.13103 29.7659C4.01992 30.655 4.91515 31.2011 5.96277 31.6139C6.97865 32.0076 8.14055 32.2807 9.84849 32.3569C11.5564 32.4331 12.0961 32.4521 16.4453 32.4521C20.7945 32.4521 21.3342 32.4331 23.0421 32.3569C24.7437 32.2807 25.9056 32.0076 26.9279 31.6139C27.9818 31.2075 28.8707 30.655 29.7596 29.7659C30.6485 28.8768 31.1945 27.9814 31.6072 26.9336C32.0009 25.9175 32.2739 24.7554 32.3501 23.0471C32.4263 21.3388 32.4453 20.799 32.4453 16.449C32.4453 12.0989 32.4263 11.5591 32.3501 9.85084C32.2739 8.14891 32.0009 6.98678 31.6072 5.96435C31.2009 4.91018 30.6485 4.02111 29.7596 3.13205C28.8707 2.24298 27.9755 1.69684 26.9279 1.28406C25.912 0.890331 24.7501 0.617261 23.0421 0.541055C21.3279 0.4712 20.7818 0.452148 16.439 0.452148Z" fill="white"/>
<path d="M16.4385 8.23828C11.9052 8.23828 8.22266 11.9152 8.22266 16.4558C8.22266 20.9964 11.8988 24.6733 16.4385 24.6733C20.9782 24.6733 24.6544 20.9964 24.6544 16.4558C24.6544 11.9152 20.9782 8.23828 16.4385 8.23828ZM16.4385 21.7838C13.4925 21.7838 11.1052 19.3961 11.1052 16.4494C11.1052 13.5028 13.4925 11.115 16.4385 11.115C19.3846 11.115 21.7719 13.5028 21.7719 16.4494C21.7719 19.3961 19.3846 21.7838 16.4385 21.7838Z" fill="white"/>
<path d="M24.979 9.82494C26.038 9.82494 26.8964 8.96629 26.8964 7.9071C26.8964 6.8479 26.038 5.98926 24.979 5.98926C23.92 5.98926 23.0615 6.8479 23.0615 7.9071C23.0615 8.96629 23.92 9.82494 24.979 9.82494Z" fill="white"/>
</svg>
