<svg width="18" height="18" viewBox="0 0 18 18" fill="none" xmlns="http://www.w3.org/2000/svg">
<path d="M10.3558 16.0688C8.1897 15.0201 6.29757 13.5442 4.71943 11.6827L4.71845 11.6816C3.41681 10.1348 2.55368 8.67416 1.96425 7.10987L1.96217 7.10434L1.96024 7.09875C1.72883 6.42704 1.43839 5.45276 1.50077 4.43876L1.5013 4.43008L1.5022 4.42143C1.63414 3.15214 2.68555 2.37378 3.53029 1.53309L3.53554 1.52821C3.87981 1.20843 4.31966 1 4.77141 1C5.25038 1 5.65115 1.21552 5.98685 1.5269C6.67669 2.15645 7.30486 2.86323 7.96038 3.52842C8.32095 3.88783 8.53767 4.30926 8.53767 4.78609C8.53767 5.2511 8.29521 5.68854 7.96822 6.03566L7.96362 6.04054C7.58682 6.41553 7.21311 6.79409 6.82407 7.15648C7.0119 7.60522 7.30486 8.05533 7.77946 8.65513C8.78272 9.86835 9.9395 10.9096 11.3503 11.6116L12.4702 10.4971C12.8157 10.1533 13.2401 9.94003 13.7164 9.94003C14.2149 9.94003 14.6198 10.156 14.9626 10.4971L16.9419 12.4669C17.2947 12.818 17.4922 13.2513 17.4922 13.7095C17.4922 14.1645 17.2975 14.5983 16.9521 14.9559C16.1362 15.8557 15.2598 16.9058 13.9618 16.9768C12.6977 17.0431 11.482 16.6141 10.3558 16.0688Z" stroke="white" stroke-miterlimit="10" stroke-linecap="round"/>
</svg>
