<svg width="30" height="31" viewBox="0 0 30 31" fill="none" xmlns="http://www.w3.org/2000/svg">
<path d="M20.1589 11.5644C20.1589 8.90238 17.6729 7.69238 15.1869 7.69238C12.0629 7.69238 9.81887 9.56238 9.79688 12.4224H11.7989C11.8869 11.0804 12.6789 9.36438 15.1429 9.36438C16.8369 9.36438 18.0689 10.2664 18.0689 11.6524C18.0689 13.0824 17.1669 13.9624 16.0229 14.6884C14.1969 15.8544 13.2949 16.6684 13.2949 18.5164V19.2644H15.3409V18.5824C15.3409 17.3724 15.8249 16.9764 17.1889 16.0964C18.6849 15.1284 20.1589 13.6544 20.1589 11.5644ZM13.0969 23.9284H15.6269V21.3984H13.0969V23.9284Z" fill="#B0B9C4"/>
<circle cx="14.9775" cy="15.8105" r="13.8779" stroke="#B0B9C4" stroke-width="2"/>
</svg>
