<svg width="41" height="41" viewBox="0 0 41 41" fill="none" xmlns="http://www.w3.org/2000/svg">
<path d="M20.1677 1.10269C31.0125 1.10269 39.8041 9.8942 39.8041 20.7391C39.8041 31.584 31.0125 40.3755 20.1677 40.3755C9.32277 40.3755 0.53125 31.584 0.53125 20.7391C0.53125 9.8942 9.32277 1.10269 20.1677 1.10269Z" stroke="#171719"/>
<path d="M5.45312 16.728C5.58742 16.9629 5.72162 17.2314 5.82232 17.5671C6.82922 20.3193 7.29913 25.5551 8.94373 25.5551C11.1925 25.5551 11.1925 15.9224 13.4748 15.9224C15.7235 15.9224 15.7235 25.5551 18.0058 25.5551C20.2546 25.5551 20.2546 15.9224 22.5369 15.9224C24.7856 15.9224 24.7856 25.5551 27.068 25.5551C29.3167 25.5551 29.3167 15.9224 31.599 15.9224C33.3443 15.9224 33.7471 21.7289 34.8882 24.3133" stroke="#171719" stroke-miterlimit="10"/>
</svg>
