<svg width="33" height="32" viewBox="0 0 33 32" fill="none" xmlns="http://www.w3.org/2000/svg">
<path fill-rule="evenodd" clip-rule="evenodd" d="M32.6641 16C32.6641 24.8365 25.5006 32 16.6641 32C7.82752 32 0.664062 24.8365 0.664062 16C0.664062 7.16346 7.82752 0 16.6641 0C25.5006 0 32.6641 7.16346 32.6641 16ZM18.0974 11.4219C15.3228 12.578 7.32283 15.8612 7.32283 15.8612C5.42689 16.6011 6.53665 17.2947 6.53665 17.2947C6.53665 17.2947 8.15515 17.8497 9.54248 18.2658C10.9297 18.682 11.6696 18.2196 11.6696 18.2196C11.6696 18.2196 14.9066 16.0924 18.1898 13.8265C20.502 12.2543 19.9471 13.5491 19.3921 14.104C18.1898 15.3063 16.2014 17.2022 14.5367 18.7283C13.7968 19.3757 14.1667 19.9306 14.4904 20.208C15.4319 21.0046 17.6492 22.4533 18.6559 23.1111C18.9348 23.2934 19.1208 23.4149 19.161 23.445C19.3921 23.63 20.687 24.4623 21.4731 24.2774C22.2592 24.0924 22.3517 23.0288 22.3517 23.0288C22.3517 23.0288 22.9528 19.2369 23.5078 15.7687C23.6106 15.0878 23.7133 14.4211 23.8092 13.7995C24.0583 12.1837 24.2605 10.8721 24.2939 10.4045C24.4327 8.83232 22.7679 9.47968 22.7679 9.47968C22.7679 9.47968 19.161 10.9595 18.0974 11.4219Z" fill="#171719"/>
</svg>
