<svg width="33" height="32" viewBox="0 0 33 32" fill="none" xmlns="http://www.w3.org/2000/svg">
<path fill-rule="evenodd" clip-rule="evenodd" d="M11.7721 8.12725C11.4555 7.38425 11.2154 7.356 10.7358 7.337C10.5725 7.32775 10.3906 7.3185 10.1888 7.3185C9.5647 7.3185 8.91232 7.49725 8.51864 7.89225C8.03899 8.372 6.84879 9.49125 6.84879 11.7863C6.84879 14.0815 8.55691 16.3013 8.7873 16.612C9.02738 16.922 12.1176 21.7005 16.9159 23.648C20.6682 25.1718 21.7816 25.0305 22.6355 24.852C23.8831 24.5888 25.4474 23.6853 25.841 22.5945C26.2344 21.5033 26.2344 20.572 26.1191 20.3745C26.0041 20.177 25.6872 20.0645 25.2075 19.829C24.7279 19.5938 22.3957 18.465 21.9543 18.3145C21.5224 18.1548 21.1098 18.2113 20.7837 18.6628C20.323 19.293 19.8721 19.9328 19.5073 20.3183C19.2195 20.6193 18.749 20.657 18.3556 20.497C17.8277 20.281 16.35 19.7725 14.5266 18.183C13.1157 16.951 12.1561 15.418 11.878 14.957C11.5997 14.4867 11.8492 14.2138 12.0699 13.96C12.3099 13.6683 12.5401 13.4615 12.7799 13.1885C13.02 12.9158 13.1542 12.7748 13.3078 12.4548C13.4711 12.1445 13.3557 11.8245 13.2407 11.5893C13.1254 11.3535 12.1658 9.05825 11.7721 8.12725ZM16.3306 0C7.32895 0 0.00683594 7.17675 0.00683594 15.9998C0.00683594 19.4988 1.15851 22.744 3.11616 25.3778L1.08146 31.3225L7.35778 29.357C9.93923 31.0312 13.0197 32 16.3403 32C25.342 32 32.6641 24.8228 32.6641 16.0002C32.6641 7.17725 25.342 0.0005 16.3403 0.0005H16.3309V0H16.3306Z" fill="#171719"/>
</svg>
