<svg width="23" height="22" viewBox="0 0 23 22" fill="none" xmlns="http://www.w3.org/2000/svg">
<path d="M5.49043 19.6187L2.27763 20.6248L3.30491 17.6234L3.39013 17.3745L3.23314 17.1632C1.99874 15.5025 1.27344 13.458 1.27344 11.2532C1.27344 5.70192 5.88053 1.1679 11.5672 1.16114L11.5735 1.16146H11.5864C17.279 1.16146 21.8929 5.69811 21.8929 11.2535C21.8929 16.8086 17.279 21.3455 11.5864 21.3455C9.48693 21.3455 7.54176 20.7334 5.91192 19.6763L5.71473 19.5484L5.49043 19.6187Z" stroke="black"/>
<path d="M9.6925 9.76266L10.0678 10.093C10.0769 10.0827 10.086 10.0724 10.0951 10.0622C10.2014 9.94209 10.3049 9.82519 10.4067 9.6152C10.6046 9.22854 10.4386 8.86493 10.3747 8.73416C10.3748 8.73436 10.3723 8.72909 10.3659 8.71498L10.3433 8.66365C10.3248 8.62131 10.3009 8.56572 10.2727 8.49972C10.2163 8.3679 10.1444 8.19779 10.0677 8.01596C9.99596 7.84594 9.9199 7.66511 9.8491 7.49678C9.76922 7.30687 9.69604 7.13286 9.64334 7.00823L9.64334 7.00823L9.64279 7.00695C9.5534 6.79717 9.43396 6.58112 9.22157 6.44492C9.02036 6.31591 8.80358 6.30818 8.6955 6.30432C8.69097 6.30416 8.68662 6.304 8.68247 6.30385M9.6925 9.76266L10.0681 10.0927C10.0078 10.1613 9.94786 10.2235 9.89711 10.2761C9.88899 10.2846 9.88111 10.2927 9.8735 10.3007C9.81581 10.3607 9.7674 10.4123 9.71948 10.4706L9.71319 10.4782C9.88938 10.761 10.3155 11.3974 10.9045 11.9118C11.687 12.5939 12.3223 12.8455 12.6263 12.966C12.6543 12.9771 12.6795 12.987 12.7017 12.9961L12.5124 13.4589M9.6925 9.76266C9.64042 9.82195 9.58924 9.87505 9.53819 9.92804C9.47033 9.99845 9.40268 10.0686 9.3334 10.1528M9.6925 9.76266C9.701 9.753 9.70924 9.74367 9.71724 9.73461C9.82347 9.61429 9.88723 9.54208 9.95947 9.39157L9.3334 10.1528M12.5124 13.4589L12.7007 12.9957C12.7122 13.0004 12.724 13.0035 12.7348 13.005C12.7405 13.0057 12.7453 13.006 12.7492 13.006C12.8795 12.864 13.0399 12.6437 13.2312 12.3809C13.2652 12.3343 13.3001 12.2863 13.336 12.2372C13.4737 12.047 13.6596 11.9024 13.8925 11.8428C14.1165 11.7855 14.3282 11.8213 14.5005 11.8842C14.6512 11.937 15.0295 12.1129 15.3617 12.2701C15.717 12.4382 16.0746 12.6117 16.1979 12.6721L16.1981 12.6722C16.2295 12.6877 16.2676 12.7057 16.3074 12.7246C16.3803 12.759 16.459 12.7963 16.5134 12.8254C16.6002 12.8719 16.7662 12.9658 16.8707 13.1452M12.5124 13.4589C12.4906 13.45 12.4656 13.4401 12.4376 13.429C12.1223 13.304 11.4228 13.0269 10.5759 12.2886C9.86231 11.6655 9.37701 10.8902 9.23637 10.6571C9.09798 10.4233 9.21758 10.2859 9.32771 10.1594C9.32961 10.1572 9.33151 10.155 9.3334 10.1528M12.5124 13.4589C12.7114 13.5398 12.9493 13.5207 13.0948 13.3685C13.2525 13.2019 13.4419 12.9415 13.639 12.6704C13.6726 12.6242 13.7065 12.5776 13.7404 12.5312C13.9053 12.3029 14.1139 12.2743 14.3324 12.3551C14.5556 12.4312 15.7351 13.0021 15.9777 13.1211C16.0273 13.1454 16.0735 13.1672 16.116 13.1872C16.2815 13.2652 16.3924 13.3175 16.4387 13.3969M16.8707 13.1452L16.4387 13.3969M16.8707 13.1452C16.8707 13.1451 16.8706 13.145 16.8705 13.1448L16.4387 13.3969M16.8707 13.1452C16.9472 13.2764 16.9623 13.4252 16.9679 13.4989C16.9755 13.5989 16.9736 13.7125 16.9629 13.8328C16.9416 14.0742 16.8827 14.3722 16.7684 14.6893L16.7684 14.6894C16.6166 15.1101 16.268 15.4374 15.9257 15.6643C15.5735 15.8977 15.1595 16.0706 14.7801 16.1506L14.7792 16.1508C14.5224 16.2045 14.2107 16.2528 13.7034 16.1738C13.217 16.0982 12.5612 15.9077 11.5961 15.5158M16.4387 13.3969L9.3334 10.1528M11.5961 15.5158C11.5962 15.5158 11.5962 15.5158 11.5962 15.5158L11.7839 15.0534L11.5961 15.5158ZM11.5961 15.5158C10.2911 14.9861 9.23637 14.0807 8.50169 13.307C8.13202 12.9177 7.83783 12.5558 7.62812 12.2811C7.52314 12.1435 7.43928 12.0278 7.37791 11.9416C7.35291 11.9065 7.33145 11.876 7.31451 11.8519C7.3108 11.8466 7.30731 11.8417 7.30405 11.837C7.28923 11.816 7.28202 11.8059 7.27924 11.8021C7.27793 11.8002 7.27761 11.7998 7.27795 11.8002L7.27152 11.7919L7.27161 11.7919C7.26821 11.7873 7.26411 11.7818 7.25937 11.7754C7.18197 11.6718 6.93155 11.3364 6.69533 10.88C6.44841 10.4029 6.19287 9.74881 6.19287 9.05348C6.19287 7.71824 6.88469 7.02873 7.16291 6.75144C7.17016 6.74422 7.17713 6.73727 7.1838 6.7306L7.53739 7.08412L7.18324 6.73116C7.51304 6.40025 7.99695 6.29395 8.38204 6.29395C8.49686 6.29395 8.59892 6.29913 8.68247 6.30385M8.68247 6.30385C8.68112 6.3038 8.67979 6.30375 8.67848 6.30369L8.65869 6.8033L8.68697 6.3041C8.68547 6.30402 8.68398 6.30393 8.68247 6.30385Z" stroke="black"/>
</svg>
