<svg width="21" height="18" viewBox="0 0 21 18" fill="none" xmlns="http://www.w3.org/2000/svg">
<path d="M2.05813 7.59068C2.05813 7.59068 10.653 4.06333 13.6339 2.82126C14.7766 2.32447 18.6518 0.734617 18.6518 0.734617C18.6518 0.734617 20.4403 0.0391167 20.2913 1.72826C20.2415 2.42383 19.8441 4.85818 19.4467 7.49132C18.8505 11.2175 18.2046 15.2913 18.2046 15.2913C18.2046 15.2913 18.1053 16.434 17.2607 16.6327C16.4161 16.8315 15.025 15.9372 14.7766 15.7385C14.5778 15.5895 11.4309 13.6686 10.1392 12.5756C9.79141 12.2775 9.39398 11.6814 10.1888 10.9858C11.9774 9.34628 14.1137 7.30936 15.4054 6.01764C16.0016 5.42143 16.5978 4.03036 14.1137 5.7195C10.5863 8.15393 7.10863 10.4393 7.10863 10.4393C7.10863 10.4393 6.3137 10.9361 4.82327 10.4889C3.33278 10.0419 1.21349 9.13082 1.21349 9.13082C1.21349 9.13082 0.0211991 8.38561 2.05813 7.59068Z" stroke="#171719"/>
</svg>
